<svg xmlns="http://www.w3.org/2000/svg" version="1" width="350" height="350"><path d="M138.36 106.75v200l75-45v-110l-75-45" fill="none" stroke="#000" stroke-width="2"/><path d="M163.36 121.75v-50h-75M88.36 266.75h50M88.36 146.75h50M88.36 186.75h50M88.36 226.75h50M213.36 206.75h50" fill="none" stroke="#000"/><path d="M188.36 136.75v-90h-100" fill="none" stroke="#000"/><text x="142.359" y="150.989" style="text-align:start;line-height:125%" font-size="12" font-weight="400" font-family="Arial"><tspan x="142.359" y="150.989">00</tspan></text><text x="142.359" y="190.989" style="text-align:start;line-height:125%" font-size="12" font-weight="400" font-family="Arial"><tspan x="142.359" y="190.989">01</tspan></text><text x="141.359" y="230.989" style="text-align:start;line-height:125%" font-size="12" font-weight="400" font-family="Arial"><tspan x="141.359" y="230.989">10</tspan></text><text x="141.859" y="271.063" style="text-align:start;line-height:125%" font-size="12" font-weight="400" font-family="Arial"><tspan x="141.859" y="271.063">11</tspan></text><text x="267.951" y="209.621" style="text-align:start;line-height:125%" font-size="12" font-style="italic" font-weight="400" font-family="Times New Roman"><tspan x="267.951" y="209.621">f</tspan></text><text x="77.516" y="148.151" style="text-align:start;line-height:100%" font-size="12" font-style="italic" font-weight="400" font-family="Times New Roman"><tspan x="77.516" y="148.151">x<tspan dy="2.5" style="text-align:start;line-height:100%" font-size="8" font-style="normal">1</tspan></tspan></text><text x="76.871" y="188.151" style="text-align:start;line-height:100%" font-size="12" font-style="italic" font-weight="400" font-family="Times New Roman"><tspan x="76.871" y="188.151">x<tspan dy="2.5" style="text-align:start;line-height:100%" font-size="8" font-style="normal">2</tspan></tspan></text><text x="77.203" y="228.104" style="text-align:start;line-height:100%" font-size="12" font-style="italic" font-weight="400" font-family="Times New Roman"><tspan x="77.203" y="228.104">x<tspan dy="2.5" style="text-align:start;line-height:100%" font-size="8" font-style="normal">3</tspan></tspan></text><text x="76.816" y="268.151" style="text-align:start;line-height:100%" font-size="12" font-style="italic" font-weight="400" font-family="Times New Roman"><tspan x="76.816" y="268.151">x<tspan dy="2.5" style="text-align:start;line-height:100%" font-size="8" font-style="normal">4</tspan></tspan></text><text x="78.172" y="47.553" style="text-align:start;line-height:100%" font-size="12" font-style="italic" font-weight="400" font-family="Times New Roman"><tspan x="78.172" y="47.553">s<tspan dy="2.5" style="text-align:start;line-height:100%" font-size="8" font-style="normal">1</tspan></tspan></text><text x="77.527" y="72.553" style="text-align:start;line-height:100%" font-size="12" font-style="italic" font-weight="400" font-family="Times New Roman"><tspan x="77.527" y="72.553">s<tspan dy="2.5" style="text-align:start;line-height:100%" font-size="8" font-style="normal">2</tspan></tspan></text></svg>